<svg xmlns="http://www.w3.org/2000/svg" viewBox="0 0 640 640"><defs><style>.cls-1{fill:#fff;}.cls-2{fill:#61f261;}</style></defs><title>Unbenannt-2</title><g id="Ebene_2" data-name="Ebene 2"><rect class="cls-1" width="640" height="640"/></g><g id="Ebene_1" data-name="Ebene 1"><path class="cls-2" d="M378.42,307.21l-80-12.1c-65.67-10-107.34-46.34-107.34-89.28,0-74.39,59.87-102.68,127-102.68H320c62,0,134.48,32.85,134.48,100.74,0,14.83,7.3,20.91,18.08,20.91,11.38,0,18.08-6.08,18.08-21.54C490.65,127.67,430.26,73.06,320,67h-.65c-90,0-164.44,46.34-164.44,138.23,0,73.21,73.12,116.15,138.91,126.2L373,343.56c44.94,7.3,96.67,34.85,96.67,89.21,0,73.79-81.93,104.05-148.29,104.05-77.89,0-151.12-43-151.12-115.45,0-14.83-7.29-20.91-18.08-20.91-11.37,0-18.09,6.08-18.09,21.55,0,79.19,68.41,151,188.6,151,136.22,0,183.21-85.89,183.21-140.22,0-71.87-64.42-115.47-127.48-125.56"/></g></svg>