<svg baseProfile="full" width="232" height="232" viewBox="0 0 232 232" xmlns="http://www.w3.org/2000/svg" xmlns:xlink="http://www.w3.org/1999/xlink"><desc/><path fill="#fff" d="M0 0h232v232h-232z"/><defs><path id="a" d="M0 0h8v8h-8z"/></defs><use x="32" y="32" xlink:href="#a"/><use x="32" y="40" xlink:href="#a"/><use x="32" y="48" xlink:href="#a"/><use x="32" y="56" xlink:href="#a"/><use x="32" y="64" xlink:href="#a"/><use x="32" y="72" xlink:href="#a"/><use x="32" y="80" xlink:href="#a"/><use x="32" y="96" xlink:href="#a"/><use x="32" y="104" xlink:href="#a"/><use x="32" y="128" xlink:href="#a"/><use x="32" y="144" xlink:href="#a"/><use x="32" y="152" xlink:href="#a"/><use x="32" y="160" xlink:href="#a"/><use x="32" y="168" xlink:href="#a"/><use x="32" y="176" xlink:href="#a"/><use x="32" y="184" xlink:href="#a"/><use x="32" y="192" xlink:href="#a"/><use x="40" y="32" xlink:href="#a"/><use x="40" y="80" xlink:href="#a"/><use x="40" y="96" xlink:href="#a"/><use x="40" y="104" xlink:href="#a"/><use x="40" y="112" xlink:href="#a"/><use x="40" y="120" xlink:href="#a"/><use x="40" y="128" xlink:href="#a"/><use x="40" y="144" xlink:href="#a"/><use x="40" y="192" xlink:href="#a"/><use x="48" y="32" xlink:href="#a"/><use x="48" y="48" xlink:href="#a"/><use x="48" y="56" xlink:href="#a"/><use x="48" y="64" xlink:href="#a"/><use x="48" y="80" xlink:href="#a"/><use x="48" y="96" xlink:href="#a"/><use x="48" y="112" xlink:href="#a"/><use x="48" y="120" xlink:href="#a"/><use x="48" y="128" xlink:href="#a"/><use x="48" y="144" xlink:href="#a"/><use x="48" y="160" xlink:href="#a"/><use x="48" y="168" xlink:href="#a"/><use x="48" y="176" xlink:href="#a"/><use x="48" y="192" xlink:href="#a"/><use x="56" y="32" xlink:href="#a"/><use x="56" y="48" xlink:href="#a"/><use x="56" y="56" xlink:href="#a"/><use x="56" y="64" xlink:href="#a"/><use x="56" y="80" xlink:href="#a"/><use x="56" y="96" xlink:href="#a"/><use x="56" y="104" xlink:href="#a"/><use x="56" y="144" xlink:href="#a"/><use x="56" y="160" xlink:href="#a"/><use x="56" y="168" xlink:href="#a"/><use x="56" y="176" xlink:href="#a"/><use x="56" y="192" xlink:href="#a"/><use x="64" y="32" xlink:href="#a"/><use x="64" y="48" xlink:href="#a"/><use x="64" y="56" xlink:href="#a"/><use x="64" y="64" xlink:href="#a"/><use x="64" y="80" xlink:href="#a"/><use x="64" y="112" xlink:href="#a"/><use x="64" y="128" xlink:href="#a"/><use x="64" y="144" xlink:href="#a"/><use x="64" y="160" xlink:href="#a"/><use x="64" y="168" xlink:href="#a"/><use x="64" y="176" xlink:href="#a"/><use x="64" y="192" xlink:href="#a"/><use x="72" y="32" xlink:href="#a"/><use x="72" y="80" xlink:href="#a"/><use x="72" y="112" xlink:href="#a"/><use x="72" y="120" xlink:href="#a"/><use x="72" y="144" xlink:href="#a"/><use x="72" y="192" xlink:href="#a"/><use x="80" y="32" xlink:href="#a"/><use x="80" y="40" xlink:href="#a"/><use x="80" y="48" xlink:href="#a"/><use x="80" y="56" xlink:href="#a"/><use x="80" y="64" xlink:href="#a"/><use x="80" y="72" xlink:href="#a"/><use x="80" y="80" xlink:href="#a"/><use x="80" y="96" xlink:href="#a"/><use x="80" y="112" xlink:href="#a"/><use x="80" y="128" xlink:href="#a"/><use x="80" y="144" xlink:href="#a"/><use x="80" y="152" xlink:href="#a"/><use x="80" y="160" xlink:href="#a"/><use x="80" y="168" xlink:href="#a"/><use x="80" y="176" xlink:href="#a"/><use x="80" y="184" xlink:href="#a"/><use x="80" y="192" xlink:href="#a"/><use x="88" y="128" xlink:href="#a"/><use x="96" y="32" xlink:href="#a"/><use x="96" y="48" xlink:href="#a"/><use x="96" y="56" xlink:href="#a"/><use x="96" y="64" xlink:href="#a"/><use x="96" y="80" xlink:href="#a"/><use x="96" y="96" xlink:href="#a"/><use x="96" y="112" xlink:href="#a"/><use x="96" y="120" xlink:href="#a"/><use x="96" y="128" xlink:href="#a"/><use x="96" y="136" xlink:href="#a"/><use x="96" y="168" xlink:href="#a"/><use x="96" y="176" xlink:href="#a"/><use x="96" y="184" xlink:href="#a"/><use x="96" y="192" xlink:href="#a"/><use x="104" y="40" xlink:href="#a"/><use x="104" y="56" xlink:href="#a"/><use x="104" y="64" xlink:href="#a"/><use x="104" y="88" xlink:href="#a"/><use x="104" y="136" xlink:href="#a"/><use x="104" y="144" xlink:href="#a"/><use x="104" y="184" xlink:href="#a"/><use x="104" y="192" xlink:href="#a"/><use x="112" y="40" xlink:href="#a"/><use x="112" y="48" xlink:href="#a"/><use x="112" y="64" xlink:href="#a"/><use x="112" y="80" xlink:href="#a"/><use x="112" y="88" xlink:href="#a"/><use x="112" y="96" xlink:href="#a"/><use x="112" y="104" xlink:href="#a"/><use x="112" y="128" xlink:href="#a"/><use x="112" y="144" xlink:href="#a"/><use x="112" y="176" xlink:href="#a"/><use x="112" y="184" xlink:href="#a"/><use x="120" y="32" xlink:href="#a"/><use x="120" y="48" xlink:href="#a"/><use x="120" y="56" xlink:href="#a"/><use x="120" y="64" xlink:href="#a"/><use x="120" y="72" xlink:href="#a"/><use x="120" y="128" xlink:href="#a"/><use x="120" y="144" xlink:href="#a"/><use x="120" y="152" xlink:href="#a"/><use x="120" y="176" xlink:href="#a"/><use x="120" y="184" xlink:href="#a"/><use x="128" y="56" xlink:href="#a"/><use x="128" y="64" xlink:href="#a"/><use x="128" y="80" xlink:href="#a"/><use x="128" y="96" xlink:href="#a"/><use x="128" y="120" xlink:href="#a"/><use x="128" y="128" xlink:href="#a"/><use x="128" y="136" xlink:href="#a"/><use x="128" y="152" xlink:href="#a"/><use x="128" y="168" xlink:href="#a"/><use x="128" y="176" xlink:href="#a"/><use x="128" y="184" xlink:href="#a"/><use x="136" y="96" xlink:href="#a"/><use x="136" y="112" xlink:href="#a"/><use x="136" y="128" xlink:href="#a"/><use x="136" y="144" xlink:href="#a"/><use x="136" y="152" xlink:href="#a"/><use x="136" y="160" xlink:href="#a"/><use x="136" y="168" xlink:href="#a"/><use x="136" y="184" xlink:href="#a"/><use x="144" y="32" xlink:href="#a"/><use x="144" y="40" xlink:href="#a"/><use x="144" y="48" xlink:href="#a"/><use x="144" y="56" xlink:href="#a"/><use x="144" y="64" xlink:href="#a"/><use x="144" y="72" xlink:href="#a"/><use x="144" y="80" xlink:href="#a"/><use x="144" y="112" xlink:href="#a"/><use x="144" y="128" xlink:href="#a"/><use x="144" y="136" xlink:href="#a"/><use x="144" y="144" xlink:href="#a"/><use x="144" y="184" xlink:href="#a"/><use x="144" y="192" xlink:href="#a"/><use x="152" y="32" xlink:href="#a"/><use x="152" y="80" xlink:href="#a"/><use x="152" y="112" xlink:href="#a"/><use x="152" y="120" xlink:href="#a"/><use x="152" y="136" xlink:href="#a"/><use x="152" y="144" xlink:href="#a"/><use x="152" y="168" xlink:href="#a"/><use x="152" y="184" xlink:href="#a"/><use x="152" y="192" xlink:href="#a"/><use x="160" y="32" xlink:href="#a"/><use x="160" y="48" xlink:href="#a"/><use x="160" y="56" xlink:href="#a"/><use x="160" y="64" xlink:href="#a"/><use x="160" y="80" xlink:href="#a"/><use x="160" y="96" xlink:href="#a"/><use x="160" y="104" xlink:href="#a"/><use x="160" y="128" xlink:href="#a"/><use x="160" y="144" xlink:href="#a"/><use x="160" y="160" xlink:href="#a"/><use x="160" y="184" xlink:href="#a"/><use x="160" y="192" xlink:href="#a"/><use x="168" y="32" xlink:href="#a"/><use x="168" y="48" xlink:href="#a"/><use x="168" y="56" xlink:href="#a"/><use x="168" y="64" xlink:href="#a"/><use x="168" y="80" xlink:href="#a"/><use x="168" y="96" xlink:href="#a"/><use x="168" y="120" xlink:href="#a"/><use x="168" y="128" xlink:href="#a"/><use x="168" y="136" xlink:href="#a"/><use x="168" y="152" xlink:href="#a"/><use x="168" y="176" xlink:href="#a"/><use x="176" y="32" xlink:href="#a"/><use x="176" y="48" xlink:href="#a"/><use x="176" y="56" xlink:href="#a"/><use x="176" y="64" xlink:href="#a"/><use x="176" y="80" xlink:href="#a"/><use x="176" y="96" xlink:href="#a"/><use x="176" y="136" xlink:href="#a"/><use x="176" y="144" xlink:href="#a"/><use x="176" y="152" xlink:href="#a"/><use x="176" y="160" xlink:href="#a"/><use x="176" y="168" xlink:href="#a"/><use x="176" y="176" xlink:href="#a"/><use x="176" y="192" xlink:href="#a"/><use x="184" y="32" xlink:href="#a"/><use x="184" y="80" xlink:href="#a"/><use x="184" y="104" xlink:href="#a"/><use x="184" y="112" xlink:href="#a"/><use x="184" y="136" xlink:href="#a"/><use x="192" y="32" xlink:href="#a"/><use x="192" y="40" xlink:href="#a"/><use x="192" y="48" xlink:href="#a"/><use x="192" y="56" xlink:href="#a"/><use x="192" y="64" xlink:href="#a"/><use x="192" y="72" xlink:href="#a"/><use x="192" y="80" xlink:href="#a"/><use x="192" y="96" xlink:href="#a"/><use x="192" y="104" xlink:href="#a"/><use x="192" y="112" xlink:href="#a"/><use x="192" y="120" xlink:href="#a"/><use x="192" y="160" xlink:href="#a"/><use x="192" y="184" xlink:href="#a"/></svg>